<?xml version="1.0" standalone="no"?>
<!DOCTYPE svg PUBLIC "-//W3C//DTD SVG 20010904//EN"
 "http://www.w3.org/TR/2001/REC-SVG-20010904/DTD/svg10.dtd">
<svg version="1.0" xmlns="http://www.w3.org/2000/svg"
 width="476.000000pt" height="114.000000pt" viewBox="0 0 476.000000 114.000000"
 preserveAspectRatio="xMidYMid meet">

<g transform="translate(0.000000,114.000000) scale(0.100000,-0.100000)"
fill="#000000" stroke="none">
<path d="M3595 1046 c-27 -7 -63 -18 -78 -25 -90 -36 -147 -124 -147 -225 1
-122 61 -191 244 -280 151 -73 191 -120 162 -191 -21 -50 -70 -68 -176 -63
-77 3 -96 7 -159 40 l-71 36 0 -88 0 -88 42 -17 c72 -28 195 -40 290 -27 180
26 267 111 267 262 1 120 -60 192 -238 276 -115 55 -154 83 -171 123 -15 37 0
84 35 107 58 38 199 35 292 -6 l43 -19 0 84 0 84 -37 11 c-61 18 -241 22 -298
6z"/>
<path d="M4315 1047 c-149 -39 -225 -124 -225 -252 0 -121 59 -188 242 -277
159 -78 194 -119 164 -191 -21 -52 -69 -70 -176 -65 -77 3 -96 7 -159 40 l-71
36 0 -88 0 -88 41 -16 c96 -39 267 -43 378 -10 153 45 225 205 157 350 -30 65
-77 103 -206 165 -132 64 -159 84 -176 125 -20 48 0 94 52 119 58 28 174 24
253 -8 l61 -25 0 84 0 83 -37 11 c-60 18 -241 22 -298 7z"/>
<path d="M60 585 l0 -455 90 0 90 0 0 221 0 221 158 -218 157 -219 113 -3 c61
-1 112 0 112 3 0 5 -169 226 -332 436 l-28 37 165 210 c91 116 165 214 165
217 0 3 -46 5 -103 5 l-103 0 -140 -195 c-76 -108 -144 -203 -151 -213 -10
-14 -12 26 -13 196 l0 212 -90 0 -90 0 0 -455z"/>
<path d="M880 723 c0 -344 5 -383 54 -468 48 -82 136 -130 256 -140 199 -18
342 63 396 223 17 50 19 94 22 380 l3 322 -90 0 -91 0 0 -312 c0 -310 0 -314
-24 -365 -31 -65 -79 -93 -161 -93 -69 0 -125 27 -153 72 -34 55 -42 138 -42
425 l0 273 -85 0 -85 0 0 -317z"/>
<path d="M1820 585 l0 -455 85 0 85 0 0 160 0 160 68 0 c181 0 304 59 365 174
18 34 22 58 22 136 0 115 -24 174 -88 221 -69 50 -119 59 -339 59 l-198 0 0
-455z m357 304 c94 -35 121 -165 51 -244 -34 -39 -102 -59 -183 -53 l-50 3 -3
153 -3 152 80 0 c44 0 92 -5 108 -11z"/>
<path d="M2745 1023 c-29 -74 -325 -879 -325 -885 0 -4 42 -8 94 -8 l94 0 37
110 37 110 171 -2 171 -3 35 -107 35 -108 98 0 97 0 -38 107 c-55 152 -278
764 -286 786 -6 15 -21 17 -110 17 -89 0 -104 -2 -110 -17z m184 -385 l50
-148 -129 0 -128 0 64 193 c35 105 64 194 64 197 1 3 8 -17 15 -45 8 -27 36
-116 64 -197z"/>
</g>
</svg>
